# AST/ASF file generated using VICON BodyLanguage
# -----------------------------------------------
:version 1.10
:name VICON
:units
  mass 1.0
  length 0.45
  angle deg
:documentation
   .ast/.asf automatically generated from VICON data using
   VICON BodyBuilder and BodyLanguage model FoxedUp or BRILLIANT.MOD
:root
   order TX TY TZ RX RY RZ
   axis XYZ
   position 0 0 0  
   orientation 0 0 0 
:bonedata
  begin
     id 1 
     name lhipjoint
     direction 0.660183 -0.676772 0.325788 
     length 2.75133 
     axis 0 0 0  XYZ
  end
  begin
     id 2 
     name lfemur
     direction 0.34202 -0.939693 0  
     length 7.70317  
     axis 0 0 20  XYZ
    dof rx ry rz
    limits (-160.0 20.0)
           (-70.0 70.0)
           (-60.0 70.0)
  end
  begin
     id 3 
     name ltibia
     direction 0.342105 -0.939662 0   
     length 7.18701   
     axis 0 0 20   XYZ
    dof rx
    limits (-10.0 170.0)
  end
  begin
     id 4 
     name lfoot
     direction 0.14163 -0.389126 0.910232   
     length 2.41719   
     axis -90 7.62852e-016 20   XYZ
    dof rx rz
    limits (-45.0 90.0)
           (-70.0 20.0)
  end
  begin
     id 5 
     name ltoes
     direction 1.53533e-011 -4.21926e-011 1   
     length 1.18611   
     axis -90 7.62852e-016 20   XYZ
    dof rx
    limits (-90.0 20.0)
  end
  begin
     id 6 
     name rhipjoint
     direction -0.6658 -0.67229 0.323631   
     length 2.76968  
     axis 0 0 0  XYZ 
  end
  begin
     id 7 
     name rfemur
     direction -0.34202 -0.939693 0   
     length 7.92547   
     axis 0 0 -20   XYZ
    dof rx ry rz
    limits (-160.0 20.0)
           (-70.0 70.0)
           (-70.0 60.0)
  end
  begin
     id 8 
     name rtibia
     direction -0.342022 -0.939692 0   
     length 7.22641   
     axis 0 0 -20   XYZ
    dof rx
    limits (-10.0 170.0)
 end
 begin
     id 9 
     name rfoot
     direction -0.105675 -0.29034 0.951071   
     length 2.48149  
     axis -90 -7.62852e-016 -20   XYZ
    dof rx rz
    limits (-45.0 90.0)
           (-20.0 70.0)
  end
  begin
     id 10 
     name rtoes
     direction -1.5349e-011 -4.21859e-011 1   
     length 1.23343   
     axis -90 -7.62852e-016 -20   XYZ
    dof rx
    limits (-90.0 20.0)
  end
  begin
     id 11 
     name lowerback
     direction 0.0104173 0.993624 -0.112266   
     length 2.00527   
     axis 0 0 0   XYZ
    dof rx ry rz
    limits (-20.0 45.0)
           (-30.0 30.0)
           (-30.0 30.0)
  end
  begin
     id 12 
     name upperback
     direction 0.00733149 0.999856 -0.0152913   
     length 2.01385   
     axis 0 0 0   XYZ
    dof rx ry rz
    limits (-20.0 45.0)
           (-30.0 30.0)
           (-30.0 30.0)
  end
  begin
     id 13 
     name thorax
     direction 0.0026304 0.999318 0.036841   
     length 2.03734   
     axis 0 0 0   XYZ
    dof rx ry rz
    limits (-20.0 45.0)
           (-30.0 30.0)
           (-30.0 30.0)
  end
  begin
     id 14 
     name lowerneck
     direction 0.0293154 0.998757 0.0403082   
     length 1.65303   
     axis 0 0 0   XYZ
    dof rx ry rz
    limits (-20.0 45.0)
           (-30.0 30.0)
           (-30.0 30.0)
  end
  begin
     id 15 
     name upperneck
     direction -0.0376619 0.998184 -0.0470083   
     length 1.60926   
     axis 0 0 0   XYZ
    dof rx ry rz
    limits (-20.0 45.0)
           (-30.0 30.0)
           (-30.0 30.0)
  end
  begin
     id 16
     name head
     direction -0.0170133 0.999635 -0.0209778  
     length 1.73625  
     axis 0 0 0   XYZ
    dof rx ry rz
    limits (-20.0 45.0)
           (-30.0 30.0)
           (-30.0 30.0)
  end
  begin
     id 17 
     name lclavicle
     direction 0.919857 0.39181 -0.0186333  
     length 3.75313  
     axis 0 0 0   XYZ
    dof ry rz
    limits (-20.0 10.0)
           (0.0 20.0)
  end
  begin
     id 18 
     name lhumerus
     direction 1 -4.48988e-011 1.44029e-027   
     length 5.49313   
     axis 180 -30 -90   XYZ
    dof rx ry rz
    limits (-60.0 90.0)
           (-90.0 90.0)
           (-90.0 90.0)
  end
  begin
     id 19
     name lradius
     direction 1 -4.48924e-011 7.46281e-027   
     length 3.29037   
     axis 180 -30 -90   XYZ
    dof rx
    limits (-10.0 170.0)
  end
  begin
     id 20
     name lwrist
     direction 1 -4.48955e-011 2.19879e-026   
     length 1.64519   
     axis -1.34358e-014 90 90   XYZ
    dof ry
    limits (-180.0 0.0)
 end
  begin
     id 21 
     name lhand
     direction 1 -4.48978e-011 4.39747e-026   
     length 0.729656   
     axis -2.80598e-014 90 90   XYZ
    dof rx rz
    limits (-90.0 90.0)
           (-45.0 45.0)
  end
  begin
     id 22 
     name lfingers
     direction 1 -4.49071e-011 8.79411e-026   
     length 0.588268   
     axis -5.61193e-014 90 90   XYZ
    dof rx
    limits (0.0 90.0)
  end
  begin
     id 23
     name lthumb
     direction 0.707107 -6.34817e-011 0.707107   
     length 0.844638   
     axis -90 45 -9.86923e-015   XYZ
    dof rx rz
    limits (-45.0 45.0)
           (-45.0 45.0)
  end
  begin
     id 24 
     name rclavicle
     direction -0.919898 0.388279 0.0550233   
     length 3.7171  
     axis 0 0 0   XYZ 
    dof ry rz
    limits (-10.0 20.0)
           (-20.0 0.0)
  end
  begin
     id 25 
     name rhumerus
     direction -1 -4.48968e-011 9.98372e-028  
     length 5.23684   
     axis 180 30 90   XYZ
    dof rx ry rz
    limits (-90.0 60.0)
           (-90.0 90.0)
           (-90.0 90.0)
  end
  begin
     id 26 
     name rradius
     direction -1 -4.48956e-011 1.01023e-026   
     length 3.38251   
     axis 180 30 90   XYZ
    dof rx
    limits (-10.0 170.0)
  end
  begin
     id 27 
     name rwrist
     direction -1 -4.4892e-011 2.19886e-026   
     length 1.69126   
     axis -1.34358e-014 -90 -90   XYZ
    dof ry
    limits (-180.0 0.0)
  end
  begin
     id 28
     name rhand
     direction -1 -4.49024e-011 4.39727e-026   
     length 0.691454   
     axis -2.80598e-014 -90 -90   XYZ
    dof rx rz
    limits (-90.0 90.0)
           (-45.0 45.0)
  end
  begin
     id 29
     name rfingers
     direction -1 -4.49097e-011 8.79388e-026   
     length 0.557468   
     axis -5.61193e-014 -90 -90   XYZ
    dof rx
    limits (0.0 90.0)
  end
  begin
     id 30
     name rthumb
     direction -0.707107 -6.34938e-011 0.707107   
     length 0.800416   
     axis -90 -45 9.86923e-015   XYZ
    dof rx rz
    limits (-45.0 45.0)
           (-45.0 45.0)
  end
:hierarchy
  begin
    root lhipjoint rhipjoint lowerback
    lhipjoint lfemur
    lfemur ltibia
    ltibia lfoot
    lfoot ltoes
    rhipjoint rfemur
    rfemur rtibia
    rtibia rfoot
    rfoot rtoes
    lowerback upperback
    upperback thorax
    thorax lowerneck lclavicle rclavicle
    lowerneck upperneck
    upperneck head
    lclavicle lhumerus
    lhumerus lradius
    lradius lwrist
    lwrist lhand lthumb
    lhand lfingers
    rclavicle rhumerus
    rhumerus rradius
    rradius rwrist
    rwrist rhand rthumb
    rhand rfingers
  end

#!OML:ASF H:\BabyWalks\Project 1\Capture day 1\Session 1\baby.ASF
:FULLY-SPECIFIED
:DEGREES
27
root -32.0577 17.8073 -22.6209 -7.14936 75.3696 -13.5958
lowerback 13.1136 0.0733787 -0.53985
upperback 9.68285 0.49977 3.28943
thorax 2.81855 0.317093 3.70556
lowerneck -2.48707 3.49411 1.34433
upperneck -7.49615 4.47799 -5.94262
head -1.75845 2.37841 -2.14617
rclavicle -5.1684e-015 9.54166e-015
rhumerus -51.0985 28.5841 -89.3382
rradius 47.8703
rwrist 1.8657
rhand -14.8532 -14.5077
rfingers 7.12502
rthumb 11.3064 -44.1829
lclavicle -5.1684e-015 9.54166e-015
lhumerus -47.0059 -5.55271 85.1503
lradius 48.4334
lwrist -0.620232
lhand 1.3414 9.15408
lfingers 7.12502
lthumb 26.8746 37.2638
rfemur 5.1648 14.9447 24.2008
rtibia 8.6897
rfoot -19.5347 -4.3932
rtoes 3.83868
lfemur -24.1149 -4.8045 -11.2219
ltibia 35.1788
lfoot -12.8558 -16.9155
ltoes 23.0708
28
root -32.0582 17.8069 -22.6221 -7.18774 75.3711 -13.6362
lowerback 13.1262 0.0786252 -0.54209
upperback 9.66861 0.506128 3.29099
thorax 2.79607 0.320192 3.70749
lowerneck -2.46493 3.49011 1.35545
upperneck -7.48757 4.47281 -5.93159
head -1.75973 2.37519 -2.1449
rclavicle 1.72943e-014 2.5842e-014
rhumerus -51.1152 28.5586 -89.3508
rradius 47.8601
rwrist 1.86375
rhand -14.8384 -14.5232
rfingers 7.12502
rthumb 11.3206 -44.1977
lclavicle 1.72943e-014 2.5842e-014
lhumerus -47.0312 -5.51847 85.1285
lradius 48.439
lwrist -0.645117
lhand 1.35782 9.1618
lfingers 7.12502
lthumb 26.8903 37.2691
rfemur 5.16185 14.9421 24.2091
rtibia 8.68889
rfoot -19.5022 -4.40091
rtoes 3.73649
lfemur -24.1246 -4.80403 -11.2152
ltibia 35.1884
lfoot -12.8853 -16.9219
ltoes 22.8991
29
root -32.0588 17.8066 -22.6233 -7.21658 75.3731 -13.6659
lowerback 13.1409 0.0836143 -0.549062
upperback 9.65373 0.511696 3.29202
thorax 2.77187 0.322687 3.71159
lowerneck -2.44246 3.48637 1.36603
upperneck -7.47962 4.46801 -5.9197
head -1.7613 2.37218 -2.14328
rclavicle -3.57812e-014 -6.75868e-015
rhumerus -51.1337 28.5329 -89.3638
rradius 47.8547
rwrist 1.84904
rhand -14.8195 -14.5404
rfingers 7.12502
rthumb 11.3389 -44.2138
lclavicle -3.57812e-014 -6.75868e-015
lhumerus -47.0583 -5.47484 85.1051
lradius 48.4394
lwrist -0.669175
lhand 1.36403 9.18924
lfingers 7.12502
lthumb 26.8962 37.2957
rfemur 5.15801 14.9394 24.2149
rtibia 8.69069
rfoot -19.4732 -4.40605
rtoes 3.64356
lfemur -24.1334 -4.80485 -11.2114
ltibia 35.1974
lfoot -12.9179 -16.9238
ltoes 22.751
30
root -32.0594 17.8063 -22.6245 -7.23936 75.377 -13.688
lowerback 13.1593 0.0873968 -0.55861
upperback 9.63826 0.515489 3.29221
thorax 2.74515 0.324226 3.71642
lowerneck -2.42099 3.48303 1.37543
upperneck -7.47132 4.46385 -5.90649
head -1.76259 2.36947 -2.14098
rclavicle -1.64991e-014 -2.3059e-014
rhumerus -51.1541 28.5076 -89.3777
rradius 47.8535
rwrist 1.82843
rhand -14.8029 -14.5501
rfingers 7.12502
rthumb 11.3548 -44.2227
lclavicle -1.64991e-014 -2.3059e-014
lhumerus -47.0877 -5.42043 85.0793
lradius 48.4364
lwrist -0.693572
lhand 1.3635 9.23413
lfingers 7.12502
lthumb 26.8957 37.3406
rfemur 5.15443 14.9349 24.2185
rtibia 8.69493
rfoot -19.4457 -4.41156
rtoes 3.56157
lfemur -24.1407 -4.80767 -11.2103
ltibia 35.2058
lfoot -12.9468 -16.9289
ltoes 22.5897
31
root -32.0602 17.8061 -22.6258 -7.26242 75.3791 -13.7108
lowerback 13.178 0.0912501 -0.568644
upperback 9.62269 0.519313 3.29239
thorax 2.71816 0.325756 3.72152
lowerneck -2.40111 3.47921 1.38419
upperneck -7.46304 4.45907 -5.89282
head -1.76366 2.36645 -2.13838
rclavicle -2.10712e-014 1.39149e-014
rhumerus -51.1756 28.4828 -89.391
rradius 47.8568
rwrist 1.80794
rhand -14.7876 -14.5542
rfingers 7.12502
rthumb 11.3696 -44.226
lclavicle -2.10712e-014 1.39149e-014
lhumerus -47.1197 -5.35913 85.0534
lradius 48.4324
lwrist -0.712916
lhand 1.35617 9.29607
lfingers 7.12502
lthumb 26.8887 37.4037
rfemur 5.1492 14.9322 24.2224
rtibia 8.70063
rfoot -19.416 -4.41727
rtoes 3.46582
lfemur -24.149 -4.80803 -11.2088
ltibia 35.2142
lfoot -12.9767 -16.9326
ltoes 22.4722
